<svg aria-hidden="true" style="position: absolute; width: 0; height: 0; overflow: hidden;" version="1.1" xmlns="http://www.w3.org/2000/svg" xmlns:xlink="http://www.w3.org/1999/xlink">
<defs>
<symbol id="astronaut" viewBox="0 0 32 32">
<path fill="#2196f3" style="fill: var(--color1, #2196f3)" d="M31.974 4.524c-0.064-0.191-0.227-0.332-0.427-0.362l-0.003-0-1.911-0.278-0.855-1.731c-0.179-0.365-0.777-0.365-0.956 0l-0.855 1.731-1.911 0.278c-0.26 0.039-0.457 0.26-0.457 0.528 0 0.15 0.062 0.285 0.161 0.382l1.383 1.348-0.326 1.903c-0.034 0.2 0.048 0.402 0.212 0.522 0.166 0.12 0.383 0.135 0.562 0.040l1.709-0.899 1.709 0.899c0.072 0.038 0.157 0.061 0.247 0.061 0.295 0 0.534-0.239 0.534-0.534 0-0.031-0.003-0.062-0.008-0.092l0 0.003-0.326-1.903 1.383-1.348c0.099-0.097 0.161-0.233 0.161-0.382 0-0.059-0.009-0.115-0.027-0.168l0.001 0.004zM29.511 5.851c-0.126 0.122-0.183 0.299-0.153 0.472l0.191 1.114-1-0.526c-0.072-0.039-0.158-0.062-0.249-0.062s-0.177 0.023-0.252 0.063l0.003-0.001-1 0.526 0.191-1.114c0.005-0.027 0.008-0.059 0.008-0.091 0-0.149-0.061-0.285-0.16-0.381l-0-0-0.811-0.79 1.119-0.162c0.174-0.025 0.324-0.134 0.402-0.292l0.5-1.013 0.5 1.013c0.078 0.158 0.228 0.267 0.402 0.292l1.119 0.162-0.809 0.79zM26.134 20.522h-1.067v1.067h1.067v-1.067zM26.134 22.656h-1.067v1.066h1.067v-1.066zM27.2 21.589h-1.067v1.067h1.067v-1.067zM25.067 21.589h-1.067v1.067h1.067v-1.067zM22.4 26.389h-1.067v1.067h1.067v-1.067zM22.4 28.523h-1.067v1.067h1.067v-1.067zM23.467 27.456h-1.067v1.067h1.067v-1.067zM21.334 27.456h-1.067v1.067h1.067v-1.067zM16 24.256h-1.066v1.067h1.066v-1.067zM16 26.389h-1.066v1.067h1.066v-1.067zM17.067 25.322h-1.067v1.067h1.067v-1.067zM14.934 25.322h-1.067v1.067h1.067v-1.067zM5.867 6.122h-1.066v1.066h1.066v-1.066zM5.867 8.256h-1.066v1.066h1.066v-1.066zM6.933 7.189h-1.067v1.067h1.066v-1.067zM4.8 7.189h-1.067v1.067h1.067v-1.067z"></path>
<path fill="#212121" style="fill: var(--color2, #212121)" d="M24.715 14.16c-0.28-0.376-0.698-0.636-1.179-0.703l-0.009-0.001c-0.076-0.012-0.164-0.018-0.254-0.018-0.411 0-0.789 0.139-1.090 0.373l0.004-0.003-1.253 0.96-1.898 1.417-1.358-0.541c2.421-1.086 4.113-3.508 4.113-6.32 0-3.823-3.122-6.934-6.961-6.934s-6.961 3.11-6.961 6.934c0 1.386 0.415 2.674 1.12 3.759l-2.768-0.024c-0.009 0-0.016 0.005-0.023 0.005-0.057 0.003-0.11 0.014-0.159 0.033l0.004-0.001c-0.013 0.005-0.026 0.007-0.038 0.013-0.006 0.003-0.013 0.003-0.019 0.006l-3.233 1.596c-0 0-0.001 0-0.001 0.001l-1.893 0.91c-0.024 0.011-0.045 0.023-0.065 0.036l0.001-0.001c-0.482 0.324-0.795 0.867-0.795 1.483 0 0.297 0.073 0.577 0.201 0.823l-0.005-0.010c0.22 0.424 0.592 0.742 1.043 0.885l0.013 0.003c0.161 0.053 0.345 0.083 0.537 0.083 0.308 0 0.598-0.078 0.851-0.216l-0.009 0.005 1.388-0.738 2.264-1.169 1.357-0.008-5.442 5.415c0 0.001-0.001 0.001-0.001 0.001l-1.339 1.333c-0.303 0.299-0.491 0.714-0.491 1.173 0 0.002 0 0.003 0 0.005v-0c0.002 0.919 0.748 1.664 1.667 1.664 0.001 0 0.002 0 0.002 0h-0c0.428 0 0.854-0.162 1.18-0.485l1.314-1.309 1.741-1.3 0.901 0.897-3.102 3.088c-0.303 0.299-0.491 0.714-0.491 1.173 0 0.001 0 0.003 0 0.004v-0c0 0.445 0.174 0.864 0.49 1.179 0.302 0.3 0.717 0.485 1.176 0.485 0.001 0 0.002 0 0.003 0h-0c0.427 0 0.855-0.162 1.18-0.485l4.488-4.472c0.007-0.006 0.016-0.009 0.022-0.016l5.166-5.658 3.471 0.494c0.025 0.004 0.050 0.006 0.075 0.006 0.064 0 0.127-0.016 0.187-0.038 0.017-0.006 0.032-0.015 0.049-0.023 0.019-0.010 0.039-0.015 0.058-0.027l3.213-2.133c0.012-0.008 0.018-0.021 0.029-0.030 0.013-0.010 0.029-0.014 0.041-0.026l1.271-1.191c0.348-0.326 0.564-0.787 0.564-1.3 0-0.4-0.132-0.769-0.355-1.066l0.003 0.005zM2.13 17.77c-0.098 0.054-0.215 0.086-0.34 0.086-0.078 0-0.153-0.013-0.224-0.036l0.005 0.001c-0.294-0.093-0.504-0.364-0.504-0.683 0-0.235 0.114-0.444 0.289-0.575l0.002-0.001 1.314-0.632 0.316 0.924 0.133 0.389-0.992 0.527zM5.627 15.942l-1.548 0.8-0.255-0.746-0.184-0.537 2.027-1.001-0.040 1.484zM20.727 9.322c0 0.918-0.219 1.785-0.599 2.56l-4.181-1.899c-0.044-0.575-0.342-1.072-0.782-1.384l-0.006-0.004 1.464-4.861c2.377 0.757 4.104 2.975 4.104 5.588zM8.938 9.322c0-3.235 2.644-5.867 5.894-5.867 0.253 0 0.5 0.022 0.745 0.053l-1.432 4.753c-0.019 0-0.037-0.006-0.057-0.006-0 0-0.001 0-0.001 0-1.032 0-1.869 0.835-1.872 1.867v0c0.003 1.031 0.84 1.867 1.872 1.867 0 0 0 0 0.001 0h-0c0.695 0 1.295-0.383 1.618-0.944l3.863 1.755c-1.075 1.447-2.795 2.39-4.737 2.39-3.25 0-5.894-2.632-5.894-5.867zM14.895 10.122c-0.003 0.442-0.362 0.8-0.805 0.8-0.001 0-0.001 0-0.002 0h0c-0 0-0.001 0-0.001 0-0.443 0-0.802-0.358-0.804-0.8v-0c0-0.441 0.361-0.8 0.806-0.8s0.806 0.359 0.806 0.8zM2.464 25.146c-0.11 0.109-0.261 0.176-0.428 0.176s-0.317-0.067-0.427-0.175l0 0c-0.109-0.108-0.176-0.257-0.176-0.422s0.067-0.314 0.176-0.422l0-0 0.962-0.959 0.852 0.848-0.959 0.954zM5.678 28.88c-0.11 0.109-0.261 0.176-0.428 0.176s-0.317-0.067-0.427-0.175l0 0c-0.109-0.108-0.176-0.257-0.176-0.422s0.067-0.314 0.176-0.422l0-0 0.963-0.959 0.852 0.848-0.96 0.955zM9.16 25.411l-0.001 0.001-1.765 1.76-0.852-0.848 1.765-1.757c0.040-0.040 0.065-0.088 0.090-0.136 0.007-0.014 0.020-0.026 0.026-0.040 0.016-0.041 0.019-0.085 0.026-0.128 0.003-0.025 0.014-0.048 0.014-0.073 0-0.035-0.013-0.070-0.020-0.105-0.006-0.032-0.006-0.064-0.019-0.096-0.025-0.053-0.055-0.098-0.092-0.138l0 0c-0.010-0.012-0.014-0.026-0.025-0.038h-0.001s0-0.001-0.001-0.002l-1.607-1.6c-0.017-0.017-0.039-0.024-0.058-0.038-0.025-0.021-0.054-0.040-0.084-0.056l-0.003-0.001c-0.026-0.012-0.058-0.023-0.090-0.031l-0.003-0.001c-0.030-0.009-0.065-0.017-0.101-0.020l-0.002-0c-0.007-0-0.015-0-0.023-0-0.026 0-0.051 0.002-0.075 0.005l0.003-0c-0.036 0.005-0.069 0.009-0.104 0.021s-0.064 0.027-0.094 0.045c-0.020 0.011-0.043 0.015-0.061 0.029l-1.774 1.324-0.901-0.897 2.399-2.386 4.36 4.289-0.928 0.919zM15.979 18.394c-0.016-0.002-0.030 0.004-0.046 0.003-0.008-0-0.017-0.001-0.027-0.001-0.031 0-0.062 0.003-0.092 0.008l0.003-0c-0.070 0.011-0.132 0.035-0.187 0.070l0.002-0.001c-0.030 0.018-0.057 0.037-0.083 0.061-0.013 0.011-0.028 0.016-0.040 0.029l-4.698 5.146-4.328-4.256 2.833-2.818c0.096-0.097 0.156-0.23 0.156-0.377 0-0.295-0.239-0.534-0.534-0.534-0.001 0-0.001 0-0.002 0h0l-2.219 0.013 0.028-1.607 3.104 0.027c1.264 1.297 3.027 2.101 4.978 2.101 0.001 0 0.002 0 0.003 0h-0c0.438 0 0.864-0.046 1.28-0.122 0.040 0.032 0.080 0.064 0.129 0.085l2.41 0.96 0.152 0.758 0.178 0.886-3.003-0.427zM20.020 18.572l-0.313-1.558 1.446-1.080 0.946 1.257-2.080 1.381zM23.773 15.741l-0.837 0.785-0.931-1.236 0.831-0.637c0.155-0.119 0.351-0.168 0.543-0.143 0.193 0.027 0.364 0.128 0.48 0.284 0.088 0.117 0.141 0.265 0.141 0.426 0 0.206-0.087 0.391-0.226 0.521l-0 0z"></path>
<path fill="#212121" style="fill: var(--color2, #212121)" d="M13.602 18.544l-2.143-2.134c-0.096-0.096-0.229-0.155-0.376-0.155s-0.28 0.059-0.376 0.155l-2.143 2.133c-0.097 0.097-0.156 0.23-0.156 0.378s0.060 0.281 0.156 0.378l-0-0 2.142 2.134c0.096 0.096 0.229 0.156 0.376 0.156s0.28-0.059 0.376-0.156v0l2.143-2.134c0.097-0.097 0.157-0.23 0.157-0.378s-0.060-0.281-0.157-0.378l-0-0zM11.083 20.303l-1.387-1.381 1.386-1.381 1.387 1.381-1.387 1.381zM17.164 5.071l-0.258 1.036c0.071 0.018 1.738 0.452 1.738 2.149h1.067c0-2.017-1.666-2.965-2.547-3.184zM19.711 9.322h-1.067v1.066h1.067v-1.066z"></path>
</symbol>
<symbol id="client-1" viewBox="0 0 64 32">
<path fill="#afb1b8" style="fill: var(--color3, #afb1b8)" d="M1.28 0l1.495 1.415-2.775-0.002v6.867h7.253v-2.626l1.493 1.414v-7.069h-7.467zM7.188 5.489l-4.239-4.013h4.239v4.013zM5.872 7.276h-4.724v-4.618h0.334v4.305h4.39v0.313zM2.263 9.195l-0.175 0.359-0.175-0.359h-0.146l0.255 0.479v0.279h0.132v-0.279l0.254-0.479h-0.146zM2.483 9.953l0.061-0.177h0.294l0.062 0.177h0.138l-0.287-0.758h-0.118l-0.286 0.758h0.137zM2.691 9.356l0.11 0.314h-0.22l0.11-0.315zM3.386 9.652c-0.018 0.027-0.029 0.060-0.029 0.095 0 0 0 0.001 0 0.001v-0c0 0.064 0.022 0.116 0.067 0.156s0.105 0.060 0.18 0.060c0.075 0 0.14-0.020 0.194-0.061l0.043 0.051h0.147l-0.111-0.132c0.044-0.060 0.066-0.136 0.066-0.23h-0.11c0 0.051-0.011 0.098-0.032 0.139l-0.147-0.173 0.052-0.038c0.031-0.021 0.058-0.048 0.078-0.078l0.001-0.001c0.015-0.025 0.024-0.054 0.024-0.086 0-0 0-0.001 0-0.001v0c0-0.001 0-0.002 0-0.003 0-0.047-0.021-0.089-0.053-0.117l-0-0c-0.034-0.031-0.079-0.049-0.128-0.049-0.003 0-0.005 0-0.008 0h0c-0.061 0-0.11 0.018-0.146 0.052s-0.054 0.081-0.054 0.141c0 0.024 0.006 0.049 0.017 0.076s0.033 0.058 0.062 0.095c-0.056 0.040-0.094 0.075-0.113 0.105zM3.728 9.82c-0.032 0.026-0.074 0.042-0.12 0.043h-0c-0.002 0-0.004 0-0.006 0-0.033 0-0.062-0.013-0.085-0.033l0 0c-0.021-0.021-0.034-0.049-0.034-0.081 0-0.002 0-0.003 0-0.004v0c0-0.041 0.021-0.077 0.063-0.108l0.016-0.012 0.166 0.195zM3.592 9.484c-0.036-0.044-0.054-0.081-0.054-0.11 0-0.025 0.007-0.046 0.022-0.063 0.014-0.015 0.034-0.025 0.056-0.025 0.001 0 0.002 0 0.003 0h-0c0.001-0 0.002-0 0.003-0 0.021 0 0.040 0.008 0.054 0.021l-0-0c0.015 0.014 0.022 0.031 0.022 0.051 0 0.001 0 0.002 0 0.003 0 0.028-0.012 0.053-0.032 0.071l-0 0-0.016 0.013-0.058 0.040zM4.826 9.896c0.052-0.045 0.082-0.109 0.090-0.189h-0.131c-0.007 0.054-0.023 0.093-0.050 0.116s-0.065 0.035-0.117 0.035c-0.057 0-0.1-0.022-0.129-0.065s-0.044-0.106-0.044-0.188v-0.067c0.001-0.081 0.016-0.142 0.047-0.184s0.075-0.063 0.132-0.063c0.049 0 0.087 0.012 0.112 0.036s0.042 0.063 0.048 0.118h0.131c-0.009-0.083-0.038-0.147-0.089-0.193s-0.118-0.068-0.202-0.068c-0.062 0-0.117 0.015-0.164 0.044-0.048 0.030-0.085 0.073-0.108 0.124l-0.001 0.002c-0.024 0.053-0.038 0.115-0.038 0.18 0 0.003 0 0.006 0 0.009v-0 0.071c0.001 0.070 0.014 0.131 0.039 0.184s0.061 0.093 0.106 0.122c0.046 0.029 0.1 0.043 0.16 0.043 0.086 0 0.156-0.022 0.208-0.068zM5.601 9.789c0.026-0.056 0.039-0.122 0.039-0.196v-0.042c0-0.002 0-0.005 0-0.008 0-0.068-0.015-0.132-0.041-0.19l0.001 0.003c-0.024-0.054-0.062-0.097-0.11-0.127l-0.001-0.001c-0.048-0.030-0.102-0.045-0.164-0.045s-0.116 0.015-0.164 0.045c-0.048 0.030-0.084 0.073-0.111 0.13-0.025 0.055-0.039 0.119-0.039 0.186 0 0.003 0 0.007 0 0.010v-0.001 0.043c0 0.073 0.013 0.137 0.039 0.192s0.064 0.099 0.112 0.129c0.048 0.030 0.103 0.045 0.164 0.045s0.117-0.015 0.165-0.045c0.048-0.030 0.085-0.073 0.11-0.129zM5.46 9.361c0.032 0.045 0.048 0.109 0.048 0.194v0.039c0 0.085-0.016 0.15-0.047 0.195s-0.076 0.067-0.134 0.067c-0.002 0-0.004 0-0.005 0-0.054 0-0.101-0.027-0.129-0.068l-0-0.001c-0.032-0.045-0.048-0.11-0.048-0.193v-0.044c0.001-0.082 0.017-0.145 0.049-0.189 0.029-0.041 0.075-0.067 0.128-0.067 0.002 0 0.004 0 0.006 0h-0c0.058 0 0.103 0.022 0.135 0.067z"></path>
</symbol>
<symbol id="client-2" viewBox="0 0 64 32">
<path fill="#afb1b8" style="fill: var(--color3, #afb1b8)" d="M3.651 0.626h-0.029c-0.045-0.003-0.090-0.004-0.134-0.005h-0.097c-0.085 0-0.171 0.002-0.257 0.006-0.003-0-0.006-0-0.010-0s-0.007 0-0.010 0l0-0c-0.824 0.048-1.588 0.254-2.28 0.588l0.036-0.016-0.092 0.044v4.724l0.216-0.073c0.189-0.065 0.391-0.124 0.6-0.178 0.516-0.138 1.11-0.221 1.722-0.229l0.005-0v0.621c-0.077 0-0.152 0.003-0.227 0.006h-0.018c-0.485 0.027-0.939 0.1-1.377 0.215l0.048-0.011c-0.601 0.153-1.128 0.364-1.618 0.635l0.035-0.018v-6.058c0.478-0.284 1.031-0.516 1.617-0.666l0.044-0.010c0.469-0.126 1.008-0.2 1.563-0.202h0.092c0.109 0.003 0.215 0.008 0.315 0.015 0.288 0.021 0.554 0.065 0.811 0.131l-0.031-0.007v0.611c-0.218-0.053-0.476-0.094-0.74-0.113l-0.016-0.001-0.015-0.001c-0.053-0.004-0.105-0.009-0.154-0.009zM4.726 1.25c0.135 0.010 0.276 0.015 0.418 0.015 0.586-0.002 1.152-0.079 1.692-0.222l-0.047 0.010c0.601-0.153 1.127-0.365 1.617-0.635l-0.035 0.018v5.95c-0.478 0.284-1.031 0.516-1.617 0.666l-0.044 0.010c-0.469 0.126-1.008 0.199-1.564 0.201h-0.001c-0.011 0-0.025 0-0.038 0-0.408 0-0.804-0.051-1.182-0.147l0.033 0.007v-5.989c0.092 0.021 0.186 0.041 0.282 0.057 0.158 0.027 0.324 0.046 0.486 0.058zM7.754 1.297l-0.216 0.073c-0.198 0.067-0.399 0.127-0.6 0.18-0.538 0.144-1.155 0.228-1.792 0.23h-0.001c-0.141 0-0.27-0.004-0.396-0.012l-0.172-0.011v4.859l0.148 0.013c0.137 0.012 0.278 0.018 0.421 0.018 0.503-0.002 0.989-0.069 1.452-0.192l-0.040 0.009c0.423-0.108 0.791-0.243 1.139-0.412l-0.035 0.015 0.092-0.044v-4.725z"></path>
<path fill="#afb1b8" style="fill: var(--color3, #afb1b8)" d="M0.584 9.005c-0.058-0.060-0.139-0.097-0.229-0.097-0.004 0-0.008 0-0.012 0l0.001-0c-0.001-0-0.003-0-0.005-0-0.048 0-0.094 0.010-0.136 0.027l0.002-0.001c-0.082 0.033-0.146 0.097-0.177 0.178l-0.001 0.002c-0.017 0.043-0.025 0.088-0.025 0.134v0.809c-0.002 0.057 0.009 0.114 0.032 0.166 0.019 0.042 0.047 0.079 0.081 0.109 0.032 0.027 0.070 0.047 0.111 0.058 0.039 0.011 0.080 0.017 0.121 0.017 0.045 0 0.090-0.009 0.131-0.028 0.121-0.054 0.205-0.174 0.205-0.313v0-0.090h-0.212v0.072c0 0.001 0 0.003 0 0.005 0 0.024-0.005 0.047-0.013 0.069l0-0.001c-0.007 0.018-0.018 0.033-0.031 0.046l-0 0c-0.024 0.019-0.055 0.030-0.088 0.031h-0c-0.004 0-0.008 0.001-0.012 0.001-0.036 0-0.067-0.017-0.087-0.044l-0-0c-0.018-0.029-0.028-0.063-0.028-0.1 0-0.003 0-0.006 0-0.008v0-0.755c-0.001-0.042 0.008-0.083 0.026-0.121 0.020-0.030 0.053-0.050 0.091-0.050 0.004 0 0.009 0 0.013 0.001l-0.001-0c0.001-0 0.003-0 0.004-0 0.037 0 0.070 0.018 0.090 0.045l0 0c0.022 0.029 0.035 0.065 0.035 0.104 0 0.002-0 0.003-0 0.005v-0 0.070h0.209v-0.083c0-0.001 0-0.002 0-0.004 0-0.050-0.009-0.097-0.027-0.141l0.001 0.003c-0.017-0.044-0.041-0.082-0.071-0.114l0 0zM1.841 8.996c-0.065-0.055-0.149-0.088-0.24-0.089h-0c-0.043 0-0.086 0.008-0.126 0.023-0.087 0.031-0.156 0.096-0.193 0.177l-0.001 0.002c-0.021 0.049-0.032 0.103-0.031 0.157v0.776c-0.001 0.055 0.009 0.109 0.031 0.159 0.019 0.042 0.047 0.079 0.082 0.109 0.032 0.030 0.070 0.053 0.112 0.068s0.083 0.023 0.126 0.023c0.092-0 0.177-0.035 0.241-0.091l-0 0c0.034-0.030 0.061-0.067 0.080-0.109 0.022-0.050 0.032-0.104 0.031-0.159v-0.776c0-0.002 0-0.004 0-0.007 0-0.054-0.011-0.106-0.032-0.152l0.001 0.002c-0.020-0.044-0.047-0.082-0.080-0.113l-0-0zM1.742 10.042c0 0.004 0.001 0.008 0.001 0.012 0 0.039-0.016 0.075-0.042 0.1l-0 0c-0.027 0.023-0.062 0.036-0.1 0.036s-0.073-0.014-0.1-0.036l0 0c-0.026-0.025-0.043-0.061-0.043-0.1 0-0.004 0-0.009 0.001-0.013l-0 0.001v-0.776c-0-0.004-0-0.008-0-0.012 0-0.039 0.016-0.075 0.042-0.1l0-0c0.027-0.023 0.062-0.036 0.1-0.036s0.073 0.014 0.1 0.036l-0-0c0.026 0.025 0.043 0.061 0.043 0.1 0 0.004-0 0.009-0.001 0.013l0-0.001v0.777zM3.492 10.389v-1.47h-0.203l-0.267 0.778h-0.004l-0.269-0.778h-0.201v1.469h0.21v-0.894h0.004l0.205 0.632h0.105l0.207-0.632h0.004v0.894h0.21zM4.684 9.023c-0.032-0.036-0.073-0.064-0.119-0.080-0.043-0.015-0.093-0.023-0.144-0.023-0.003 0-0.006 0-0.008 0h-0.311v1.47h0.21v-0.574h0.108c0.066 0.003 0.13-0.011 0.189-0.040 0.048-0.027 0.087-0.065 0.114-0.111l0.001-0.001c0.024-0.039 0.041-0.083 0.048-0.128s0.011-0.1 0.011-0.154c0-0.005-0-0.009-0-0.014v0.001c0.002-0.070-0.005-0.141-0.020-0.21-0.015-0.053-0.042-0.098-0.077-0.135l0 0zM4.576 9.471c-0.001 0.028-0.008 0.054-0.020 0.078l0-0.001c-0.012 0.023-0.031 0.040-0.053 0.051l-0.001 0c-0.026 0.012-0.056 0.019-0.088 0.019-0.004 0-0.008-0-0.011-0l0.001 0h-0.096v-0.5h0.108c0.003-0 0.007-0 0.010-0 0.031 0 0.060 0.007 0.086 0.019l-0.001-0.001c0.022 0.013 0.039 0.031 0.049 0.053l0 0.001c0.012 0.026 0.018 0.054 0.018 0.082v0.098c0 0.034 0.002 0.070 0 0.101h-0.002zM5.676 8.919h-0.172l-0.324 1.47h0.21l0.061-0.316h0.285l0.062 0.316h0.21l-0.332-1.47zM5.483 9.873l0.103-0.533h0.004l0.102 0.533h-0.209zM7.029 9.805h-0.004l-0.316-0.885h-0.201v1.47h0.21v-0.884h0.004l0.32 0.884h0.197v-1.469h-0.209v0.885zM8.309 8.919l-0.169 0.585h-0.004l-0.169-0.585h-0.221l0.288 0.849v0.621h0.21v-0.621l0.288-0.848h-0.222zM0 10.804h0.101v0.283h0.068v-0.283h0.1v-0.058h-0.27v0.058zM0.848 10.746l-0.132 0.341h0.073l0.028-0.078h0.136l0.029 0.078h0.075l-0.136-0.341h-0.073zM0.838 10.952l0.046-0.127 0.046 0.127h-0.093zM1.687 10.961h0.079v0.044c-0.022 0.018-0.050 0.029-0.081 0.029h-0c-0.001 0-0.003 0-0.005 0-0.027 0-0.052-0.013-0.067-0.033l-0-0c-0.016-0.023-0.025-0.051-0.025-0.081 0-0.003 0-0.005 0-0.008l-0 0c0-0.076 0.033-0.114 0.098-0.114 0.002-0 0.005-0 0.007-0 0.034 0 0.062 0.023 0.070 0.054l0 0.001 0.067-0.013c-0.014-0.067-0.063-0.1-0.145-0.1-0.001-0-0.003-0-0.005-0-0.044 0-0.084 0.017-0.115 0.044l0-0c-0.031 0.030-0.050 0.072-0.050 0.118 0 0.004 0 0.009 0.001 0.013l-0-0.001c-0 0.002-0 0.005-0 0.008 0 0.046 0.017 0.088 0.044 0.12l-0-0c0.030 0.031 0.072 0.050 0.119 0.050 0.004 0 0.007-0 0.011-0l-0 0c0.002 0 0.004 0 0.006 0 0.054 0 0.103-0.021 0.139-0.055l-0 0v-0.134h-0.148v0.058zM2.544 10.746h-0.069v0.341h0.239v-0.058h-0.17v-0.283zM3.268 10.746h-0.069v0.341h0.069v-0.341zM3.976 10.974l-0.14-0.228h-0.067v0.341h0.064v-0.223l0.137 0.223h0.069v-0.341h-0.063v0.228zM4.616 10.937h0.17v-0.058h-0.17v-0.075h0.183v-0.058h-0.252v0.341h0.259v-0.058h-0.19v-0.092zM6.168 10.881h-0.134v-0.134h-0.068v0.341h0.068v-0.149h0.134v0.149h0.069v-0.341h-0.069v0.135zM6.812 10.937h0.171v-0.058h-0.171v-0.075h0.183v-0.058h-0.252v0.341h0.259v-0.058h-0.19v-0.092zM7.685 10.937c0.059-0.009 0.090-0.041 0.090-0.095 0-0.003 0.001-0.006 0.001-0.010 0-0.027-0.013-0.051-0.034-0.066l-0-0c-0.025-0.013-0.055-0.021-0.087-0.021-0.005 0-0.009 0-0.014 0.001l0.001-0h-0.145v0.341h0.069v-0.143h0.013c0.002-0 0.004-0 0.005-0 0.013 0 0.026 0.003 0.038 0.008l-0.001-0c0.010 0.006 0.018 0.015 0.024 0.025l0.074 0.108h0.082l-0.042-0.067c-0.019-0.033-0.044-0.061-0.075-0.081l-0.001-0.001zM7.616 10.89h-0.051v-0.086h0.054c0.004-0 0.009-0.001 0.014-0.001 0.020 0 0.039 0.003 0.056 0.009l-0.001-0c0.009 0.008 0.015 0.020 0.015 0.033 0 0.015-0.007 0.028-0.018 0.036l-0 0c-0.017 0.005-0.037 0.009-0.057 0.009-0.005 0-0.009-0-0.013-0l0.001 0zM8.343 10.937h0.17v-0.058h-0.17v-0.075h0.183v-0.058h-0.253v0.341h0.259v-0.058h-0.19v-0.092z"></path>
</symbol>
<symbol id="client-3" viewBox="0 0 64 32">
<path fill="#afb1b8" style="fill: var(--color3, #afb1b8)" d="M1.58 8.768c0.003 0 0.007 0.001 0.010 0.002s0.006 0.003 0.008 0.005l-0-0 0.046 0.044c-0.036 0.036-0.081 0.065-0.131 0.084-0.052 0.019-0.111 0.030-0.174 0.030-0.004 0-0.008-0-0.013-0h0.001c-0.060 0.001-0.119-0.009-0.174-0.028-0.051-0.019-0.095-0.046-0.132-0.080l0 0c-0.036-0.034-0.065-0.075-0.084-0.121l-0.001-0.002c-0.019-0.045-0.030-0.098-0.030-0.153 0-0.002 0-0.003 0-0.005v0c-0-0.002-0-0.005-0-0.008 0-0.109 0.047-0.206 0.122-0.274l0-0c0.040-0.035 0.087-0.062 0.14-0.080 0.057-0.019 0.118-0.029 0.18-0.028 0.003-0 0.007-0 0.011-0 0.056 0 0.109 0.009 0.159 0.027l-0.003-0.001c0.046 0.018 0.089 0.042 0.125 0.071l-0.039 0.047c-0.003 0.003-0.006 0.006-0.010 0.008l-0 0c-0.004 0.002-0.009 0.004-0.014 0.004-0.001 0-0.001-0-0.002-0h0c-0.006-0-0.012-0.002-0.017-0.005l0 0-0.021-0.013-0.029-0.016c-0.027-0.013-0.057-0.023-0.090-0.028l-0.002-0c-0.019-0.003-0.042-0.005-0.064-0.005-0.002 0-0.004 0-0.005 0h0c-0.001 0-0.003-0-0.004-0-0.045 0-0.088 0.008-0.127 0.022l0.003-0.001c-0.039 0.014-0.073 0.034-0.102 0.060l0-0c-0.029 0.027-0.051 0.060-0.066 0.095s-0.024 0.077-0.024 0.121c0 0.002 0 0.003 0 0.005v-0c-0 0.002-0 0.003-0 0.005 0 0.044 0.009 0.086 0.024 0.124l-0.001-0.002c0.014 0.035 0.036 0.067 0.065 0.095 0.027 0.026 0.060 0.046 0.097 0.059 0.038 0.014 0.079 0.020 0.12 0.020 0.024 0 0.048-0.001 0.071-0.004 0.059-0.006 0.112-0.030 0.154-0.066l-0 0c0.006-0.005 0.014-0.008 0.022-0.008h0zM2.924 8.545c0 0.001 0 0.003 0 0.005 0 0.055-0.012 0.108-0.032 0.155l0.001-0.002c-0.021 0.048-0.050 0.089-0.087 0.122l-0 0c-0.039 0.034-0.084 0.062-0.135 0.079l-0.003 0.001c-0.053 0.018-0.114 0.028-0.177 0.028s-0.124-0.010-0.181-0.030l0.004 0.001c-0.053-0.019-0.098-0.046-0.137-0.081l0 0c-0.037-0.034-0.067-0.075-0.088-0.121l-0.001-0.002c-0.020-0.046-0.031-0.101-0.031-0.157s0.012-0.111 0.032-0.16l-0.001 0.003c0.020-0.046 0.050-0.088 0.089-0.124 0.039-0.034 0.085-0.060 0.137-0.077 0.053-0.018 0.114-0.029 0.177-0.029s0.124 0.011 0.181 0.030l-0.004-0.001c0.052 0.018 0.098 0.045 0.137 0.080s0.068 0.077 0.088 0.122c0.022 0.051 0.032 0.104 0.031 0.158zM2.801 8.545c0-0.002 0-0.004 0-0.007 0-0.043-0.008-0.084-0.023-0.122l0.001 0.002c-0.028-0.073-0.086-0.129-0.159-0.153l-0.002-0.001c-0.038-0.013-0.083-0.021-0.129-0.021s-0.090 0.008-0.131 0.022l0.003-0.001c-0.038 0.014-0.071 0.034-0.098 0.060l0-0c-0.027 0.026-0.049 0.057-0.062 0.093l-0.001 0.002c-0.014 0.038-0.022 0.081-0.022 0.126s0.008 0.089 0.023 0.129l-0.001-0.003c0.028 0.073 0.087 0.129 0.159 0.153l0.002 0.001c0.083 0.027 0.174 0.027 0.257 0 0.037-0.013 0.071-0.033 0.098-0.059 0.028-0.028 0.049-0.060 0.062-0.095 0.016-0.041 0.023-0.083 0.022-0.126zM3.84 8.677l0.012 0.028c0.005-0.010 0.009-0.019 0.013-0.028 0.005-0.011 0.010-0.020 0.016-0.029l-0.001 0.001 0.297-0.47c0.006-0.008 0.011-0.013 0.017-0.015s0.013-0.003 0.020-0.003c0.001 0 0.003 0 0.004 0h0.088v0.764h-0.104v-0.585c-0-0.004-0-0.009-0-0.013s0-0.009 0-0.014l-0 0.001-0.299 0.476c-0.004 0.007-0.010 0.013-0.017 0.017l-0 0c-0.007 0.004-0.016 0.006-0.025 0.006-0 0-0 0-0.001 0h-0.017c-0 0-0 0-0.001 0-0.009 0-0.018-0.002-0.025-0.007l0 0c-0.007-0.004-0.013-0.010-0.017-0.017l-0-0-0.308-0.479v0.613h-0.1v-0.762h0.088c0.001-0 0.003-0 0.004-0 0.007 0 0.014 0.001 0.021 0.003l-0.001-0c0.007 0.003 0.013 0.008 0.016 0.015l0.304 0.47c0.006 0.008 0.011 0.017 0.015 0.026l0 0.001zM4.959 8.639v0.286h-0.116v-0.762h0.259c0.049-0.001 0.098 0.005 0.145 0.017 0.038 0.009 0.073 0.026 0.102 0.048 0.025 0.020 0.045 0.045 0.058 0.073l0 0.001c0.014 0.031 0.020 0.064 0.020 0.098 0 0.001 0 0.003 0 0.005 0 0.069-0.033 0.13-0.084 0.169l-0.001 0c-0.030 0.023-0.065 0.040-0.103 0.050-0.039 0.011-0.084 0.018-0.131 0.018-0.003 0-0.006-0-0.010-0l-0.14-0.002zM4.959 8.557h0.141c0.030 0 0.061-0.004 0.090-0.012 0.025-0.007 0.047-0.019 0.066-0.033l-0 0c0.033-0.027 0.053-0.068 0.053-0.113 0-0.001 0-0.001 0-0.002v0c0-0.002 0-0.005 0-0.008 0-0.020-0.004-0.038-0.012-0.055l0 0.001c-0.010-0.021-0.023-0.038-0.040-0.052l-0-0c-0.039-0.026-0.087-0.042-0.138-0.042-0.006 0-0.013 0-0.019 0.001l0.001-0h-0.141v0.314zM6.522 8.926h-0.092c-0.001 0-0.001 0-0.002 0-0.009 0-0.017-0.003-0.024-0.007l0 0c-0.006-0.005-0.012-0.011-0.015-0.017l-0-0-0.079-0.184h-0.397l-0.082 0.184c-0.007 0.015-0.022 0.025-0.039 0.025-0 0-0.001 0-0.001-0h-0.092l0.349-0.764h0.121l0.354 0.764zM5.946 8.643h0.328l-0.138-0.311c-0.011-0.023-0.019-0.047-0.026-0.072l-0.013 0.040c-0.004 0.012-0.009 0.023-0.013 0.032l-0.137 0.31zM7.025 8.166c0.007 0.003 0.013 0.008 0.017 0.013l0.509 0.576v-0.593h0.104v0.764h-0.058c-0 0-0.001 0-0.001 0-0.008 0-0.016-0.002-0.023-0.005l0 0c-0.007-0.004-0.013-0.008-0.019-0.014l-0-0-0.508-0.575c0 0.004 0 0.008 0 0.013s-0 0.009-0 0.014l0-0.001v0.567h-0.104v-0.764h0.062c0.007 0 0.014 0.001 0.021 0.004zM8.513 8.623v0.303h-0.116v-0.303l-0.322-0.46h0.104c0.001-0 0.002-0 0.003-0 0.008 0 0.016 0.002 0.023 0.007l-0-0c0.006 0.005 0.012 0.011 0.016 0.017l0.201 0.297c0.008 0.013 0.015 0.024 0.021 0.035s0.011 0.022 0.015 0.032l0.015-0.033c0.006-0.012 0.012-0.023 0.020-0.035l0.198-0.299c0.004-0.006 0.009-0.011 0.015-0.016l0-0c0.006-0.005 0.014-0.008 0.023-0.008 0.001 0 0.002 0 0.002 0h0.105l-0.322 0.462zM3.783 6.881c0.051 0.006 0.102 0.010 0.154 0.014 0.785-0.305 1.449-0.804 1.909-1.435s0.696-1.366 0.678-2.113l-0.865-0.751c0.176 0.795 0.094 1.617-0.237 2.374s-0.898 1.419-1.638 1.911z"></path>
<path fill="#afb1b8" style="fill: var(--color3, #afb1b8)" d="M3.474 6.846l0.023 0.004c0.79-0.491 1.392-1.177 1.729-1.969s0.393-1.653 0.16-2.473l-1.232-1.070c0.498 0.88 0.699 1.865 0.578 2.839s-0.557 1.9-1.259 2.668zM7.652 4.23c-0.209 0.821-0.718 1.561-1.45 2.111-0.2 0.152-0.425 0.295-0.663 0.417l-0.026 0.012c0.596-0.152 1.144-0.421 1.601-0.786s0.812-0.817 1.037-1.32l-0.5-0.434z"></path>
<path fill="#afb1b8" style="fill: var(--color3, #afb1b8)" d="M7.456 4.109l-0.711-0.618c-0.014 0.705-0.244 1.393-0.668 1.994s-1.025 1.093-1.741 1.424h0.003c0.16 0 0.319-0.009 0.477-0.025 0.669-0.237 1.261-0.615 1.721-1.099s0.776-1.060 0.918-1.676zM3.577 0.887l-0.849-0.738c-0.759 0.255-1.411 0.703-1.872 1.285s-0.709 1.272-0.711 1.978c0.003 0.781 0.305 1.539 0.86 2.153s1.328 1.051 2.2 1.24c0.778-0.824 1.234-1.842 1.301-2.906s-0.259-2.119-0.929-3.012zM9.417 3.995c-0.003-0.926-0.428-1.814-1.182-2.469s-1.776-1.024-2.842-1.027c-0.002 0-0.005 0-0.008 0-0.513 0-1.005 0.085-1.465 0.243l0.032-0.009 5.196 4.514c0.169-0.368 0.268-0.798 0.269-1.251v-0z"></path>
</symbol>
<symbol id="client-4" viewBox="0 0 64 32">
<path fill="#2196f3" style="fill: var(--color1, #2196f3)" d="M2.804 2.795h-0.001c-0.512 0-0.926 0.368-0.926 0.823v0c0 0.455 0.415 0.823 0.926 0.823h0.001c0.512 0 0.926-0.369 0.926-0.823v-0c0-0.455-0.415-0.823-0.926-0.823zM9.642 2.532c-0.002-0.631-0.284-1.237-0.787-1.683s-1.183-0.698-1.894-0.7c-0.711 0.001-1.392 0.253-1.895 0.699s-0.786 1.052-0.787 1.684v3.482s5.362-0.531 5.363-3.482v-0.001zM0 7.157c0.001 0.439 0.198 0.86 0.548 1.171s0.823 0.486 1.318 0.487c0.494-0.001 0.968-0.176 1.318-0.487s0.547-0.732 0.548-1.171v-2.423s-3.731 0.37-3.731 2.423zM1.865 7.591c-0.097 0-0.191-0.025-0.271-0.073-0.078-0.046-0.14-0.112-0.179-0.192l-0.001-0.003c-0.023-0.049-0.037-0.106-0.037-0.166 0-0.030 0.003-0.059 0.010-0.087l-0 0.003c0.019-0.084 0.065-0.162 0.134-0.222s0.153-0.102 0.247-0.118l0.003-0c0.029-0.005 0.062-0.008 0.095-0.008 0.067 0 0.131 0.012 0.191 0.034l-0.004-0.001c0.089 0.033 0.166 0.089 0.219 0.16s0.082 0.155 0.082 0.241c0 0.057-0.012 0.114-0.037 0.167-0.026 0.055-0.062 0.102-0.105 0.141l-0 0c-0.045 0.041-0.099 0.073-0.159 0.095-0.056 0.021-0.12 0.033-0.187 0.033-0 0-0 0-0 0h0v-0.002zM5.636 7.352h-0.36v0.372h-0.188v-0.91h0.593v0.152h-0.405v0.235h0.36v0.151zM6.537 7.29c0 0.090-0.016 0.168-0.047 0.236s-0.077 0.119-0.137 0.156c-0.056 0.035-0.123 0.055-0.196 0.055-0.002 0-0.005-0-0.007-0h0c-0.076 0-0.143-0.018-0.202-0.054-0.060-0.037-0.107-0.090-0.136-0.153l-0.001-0.002c-0.031-0.066-0.050-0.143-0.050-0.225 0-0.003 0-0.005 0-0.008v0-0.045c0-0.090 0.016-0.169 0.048-0.236s0.078-0.121 0.137-0.157c0.059-0.037 0.127-0.055 0.202-0.055s0.143 0.018 0.202 0.055c0.059 0.036 0.105 0.089 0.137 0.157s0.049 0.146 0.049 0.236v0.041zM6.347 7.248c0-0.095-0.017-0.168-0.051-0.218-0.030-0.045-0.081-0.074-0.139-0.074-0.003 0-0.005 0-0.008 0h0c-0.002-0-0.005-0-0.007-0-0.058 0-0.108 0.029-0.138 0.073l-0 0.001c-0.034 0.049-0.051 0.12-0.052 0.215v0.044c0 0.093 0.017 0.165 0.051 0.216s0.083 0.077 0.148 0.077c0.002 0 0.005 0 0.007 0 0.057 0 0.108-0.029 0.137-0.073l0-0.001c0.034-0.050 0.051-0.122 0.051-0.216v-0.044zM7.145 7.485c0-0.002 0-0.003 0-0.005 0-0.031-0.015-0.058-0.037-0.076l-0-0c-0.025-0.019-0.070-0.039-0.135-0.060-0.060-0.019-0.111-0.040-0.16-0.065l0.005 0.003c-0.103-0.056-0.155-0.131-0.155-0.226 0-0.049 0.014-0.093 0.041-0.131s0.068-0.069 0.119-0.091c0.052-0.022 0.111-0.032 0.175-0.032s0.123 0.012 0.174 0.036c0.051 0.023 0.090 0.056 0.118 0.099s0.043 0.092 0.043 0.146h-0.188c0-0.042-0.013-0.074-0.039-0.097s-0.063-0.035-0.111-0.035c-0.046 0-0.082 0.010-0.107 0.029-0.023 0.017-0.038 0.044-0.038 0.074 0 0.001 0 0.001 0 0.002v-0c0 0.030 0.015 0.054 0.044 0.074s0.074 0.039 0.132 0.056c0.107 0.032 0.184 0.072 0.233 0.119s0.073 0.107 0.073 0.178c0 0.079-0.030 0.141-0.090 0.186s-0.14 0.067-0.24 0.067c-0.070 0-0.134-0.013-0.191-0.038-0.054-0.023-0.099-0.059-0.131-0.104l-0.001-0.001c-0.028-0.042-0.045-0.094-0.045-0.149 0-0.002 0-0.004 0-0.006v0h0.188c0 0.1 0.060 0.151 0.18 0.151 0.045 0 0.079-0.009 0.105-0.027 0.023-0.016 0.037-0.043 0.037-0.073 0-0.001-0-0.003-0-0.004v0zM8.146 6.966h-0.279v0.758h-0.188v-0.758h-0.275v-0.152h0.741v0.152zM8.801 7.33h-0.36v0.244h0.422v0.151h-0.61v-0.91h0.609v0.152h-0.421v0.217h0.36v0.147zM9.31 7.391h-0.149v0.333h-0.188v-0.91h0.338c0.108 0 0.191 0.024 0.249 0.072s0.087 0.116 0.087 0.203c0 0.062-0.013 0.114-0.041 0.156-0.030 0.044-0.072 0.078-0.12 0.098l-0.002 0.001 0.197 0.372v0.009h-0.201l-0.171-0.333zM9.161 7.239h0.151c0.047 0 0.083-0.012 0.109-0.035 0.024-0.024 0.039-0.056 0.039-0.092 0-0.002-0-0.005-0-0.007v0c0-0.043-0.012-0.077-0.037-0.101s-0.061-0.037-0.112-0.037h-0.151v0.273zM10.297 7.404v0.321h-0.188v-0.91h0.355c0.068 0 0.128 0.013 0.18 0.038s0.092 0.061 0.12 0.107c0.028 0.046 0.042 0.098 0.042 0.157 0 0.089-0.031 0.16-0.092 0.211s-0.145 0.077-0.253 0.077h-0.164zM10.297 7.252h0.167c0.050 0 0.087-0.012 0.113-0.035s0.039-0.057 0.039-0.1c0-0.002 0-0.004 0-0.007 0-0.039-0.015-0.075-0.040-0.102l0 0c-0.026-0.027-0.063-0.042-0.109-0.042h-0.172v0.286zM11.483 7.33h-0.36v0.244h0.422v0.151h-0.61v-0.91h0.609v0.152h-0.421v0.217h0.36v0.147zM12.353 6.966h-0.279v0.758h-0.188v-0.758h-0.275v-0.152h0.741v0.152zM13.008 7.33h-0.36v0.244h0.422v0.151h-0.61v-0.91h0.609v0.152h-0.421v0.217h0.36v0.147zM13.518 7.391h-0.149v0.333h-0.188v-0.91h0.338c0.108 0 0.19 0.024 0.249 0.072s0.087 0.116 0.087 0.203c0 0.062-0.014 0.114-0.041 0.156-0.030 0.044-0.072 0.078-0.12 0.098l-0.002 0.001 0.197 0.372v0.009h-0.201l-0.171-0.333zM13.368 7.239h0.151c0.047 0 0.083-0.012 0.109-0.035 0.024-0.024 0.039-0.056 0.039-0.093 0-0.002-0-0.005-0-0.007v0c0-0.043-0.012-0.077-0.037-0.101s-0.061-0.037-0.112-0.037h-0.151v0.273zM14.47 7.485c0-0.002 0-0.003 0-0.005 0-0.031-0.015-0.058-0.037-0.076l-0-0c-0.025-0.019-0.070-0.039-0.135-0.060-0.060-0.019-0.111-0.040-0.16-0.065l0.005 0.003c-0.103-0.056-0.155-0.131-0.155-0.226 0-0.049 0.014-0.093 0.041-0.131s0.068-0.069 0.119-0.091c0.052-0.022 0.111-0.032 0.175-0.032s0.123 0.012 0.174 0.036c0.051 0.023 0.090 0.056 0.118 0.099s0.043 0.092 0.043 0.146h-0.188c0-0.042-0.013-0.074-0.039-0.097s-0.063-0.035-0.111-0.035c-0.046 0-0.082 0.010-0.107 0.029-0.023 0.017-0.038 0.044-0.038 0.074 0 0.001 0 0.001 0 0.002v-0c0 0.030 0.015 0.054 0.045 0.074s0.074 0.039 0.132 0.056c0.107 0.032 0.184 0.072 0.233 0.119s0.073 0.107 0.073 0.178c0 0.079-0.030 0.141-0.090 0.186s-0.14 0.067-0.24 0.067c-0.070 0-0.134-0.013-0.191-0.038-0.054-0.023-0.099-0.059-0.131-0.104l-0.001-0.001c-0.028-0.042-0.045-0.094-0.045-0.149 0-0.002 0-0.004 0-0.006v0h0.188c0 0.1 0.060 0.151 0.18 0.151 0.045 0 0.079-0.009 0.104-0.027 0.023-0.016 0.038-0.043 0.038-0.073 0-0.001-0-0.002-0-0.004v0z"></path>
</symbol>
<symbol id="client-5" viewBox="0 0 64 32">
<path fill="#afb1b8" style="fill: var(--color3, #afb1b8)" d="M1.015 8.263c0.052 0.059 0.080 0.133 0.078 0.208 0 0.005 0 0.010 0 0.016 0 0.047-0.010 0.091-0.029 0.13l0.001-0.002c-0.022 0.047-0.054 0.087-0.093 0.119l-0.001 0.001c-0.088 0.061-0.198 0.097-0.315 0.097-0.013 0-0.026-0-0.038-0.001l0.002 0h-0.62v-1.321h0.607c0.011-0.001 0.023-0.001 0.036-0.001 0.112 0 0.216 0.033 0.302 0.090l-0.002-0.001c0.039 0.030 0.070 0.068 0.091 0.111s0.030 0.090 0.027 0.137c0.003 0.073-0.021 0.144-0.070 0.202-0.047 0.052-0.112 0.089-0.185 0.103 0.082 0.014 0.156 0.054 0.209 0.113zM0.288 8.064h0.259c0.059 0.004 0.117-0.012 0.165-0.044 0.019-0.016 0.034-0.035 0.044-0.058l0-0.001c0.008-0.017 0.012-0.037 0.012-0.058 0-0.004-0-0.009-0.001-0.013l0 0.001c0-0.003 0-0.007 0-0.011 0-0.021-0.004-0.042-0.013-0.060l0 0.001c-0.010-0.023-0.025-0.043-0.043-0.059l-0-0c-0.042-0.028-0.094-0.045-0.149-0.045-0.007 0-0.014 0-0.022 0.001l0.001-0h-0.255v0.347zM0.738 8.571c0.020-0.016 0.036-0.036 0.047-0.060l0-0.001c0.009-0.019 0.014-0.040 0.014-0.063 0-0.004-0-0.007-0-0.011l0 0.001c0-0.003 0-0.006 0-0.010 0-0.024-0.005-0.046-0.015-0.066l0 0.001c-0.012-0.024-0.028-0.045-0.048-0.061l-0-0c-0.045-0.030-0.1-0.048-0.159-0.048-0.006 0-0.012 0-0.018 0.001l0.001-0h-0.272v0.363h0.276c0.062 0.003 0.123-0.013 0.174-0.046zM2.255 8.831l-0.337-0.516h-0.127v0.516h-0.29v-1.321h0.55c0.012-0.001 0.025-0.001 0.039-0.001 0.129 0 0.249 0.043 0.345 0.115l-0.002-0.001c0.077 0.072 0.123 0.166 0.131 0.266 0.001 0.008 0.001 0.018 0.001 0.028 0 0.096-0.034 0.185-0.091 0.253l0.001-0.001c-0.068 0.070-0.159 0.119-0.26 0.134l-0.003 0 0.359 0.528h-0.316zM1.791 8.135h0.237c0.165 0 0.247-0.067 0.247-0.2 0-0.003 0-0.007 0-0.011 0-0.025-0.005-0.049-0.014-0.071l0 0.001c-0.011-0.027-0.027-0.050-0.047-0.068l-0-0c-0.045-0.034-0.102-0.055-0.164-0.055-0.008 0-0.016 0-0.024 0.001l0.001-0h-0.24l0.003 0.402zM3.842 8.565h-0.579l-0.102 0.266h-0.304l0.531-1.306h0.329l0.529 1.306h-0.304l-0.1-0.266zM3.765 8.365l-0.211-0.557-0.211 0.557h0.423zM5.829 8.831h-0.288l-0.646-0.898v0.898h-0.288v-1.321h0.288l0.646 0.903v-0.903h0.288v1.321zM7.474 8.515c-0.060 0.1-0.15 0.181-0.261 0.233-0.112 0.053-0.243 0.084-0.382 0.084-0.008 0-0.016-0-0.025-0l0.001 0h-0.513v-1.321h0.513c0.007-0 0.016-0 0.024-0 0.138 0 0.269 0.030 0.387 0.084l-0.006-0.002c0.11 0.051 0.201 0.131 0.261 0.23 0.059 0.108 0.090 0.226 0.090 0.347s-0.031 0.239-0.090 0.346zM7.144 8.484c0.078-0.082 0.127-0.193 0.127-0.315v-0c0-0.116-0.045-0.227-0.127-0.315-0.089-0.071-0.204-0.113-0.328-0.113-0.012 0-0.023 0-0.035 0.001l0.002-0h-0.2v0.855h0.2c0.010 0.001 0.021 0.001 0.033 0.001 0.124 0 0.239-0.043 0.329-0.114l-0.001 0.001zM4.023 0.164s3.72 1.286 3.641 3.147v3.148s-3.718-1.286-3.64-3.148l-0.001-3.147zM10.978 5.721c0.703-0.443 1.515-0.717 2.364-0.797v-0.986c-0.978 0.345-1.807 0.971-2.364 1.783z"></path>
<path fill="#afb1b8" style="fill: var(--color3, #afb1b8)" d="M10.556 6.018c0.575-1.060 1.572-1.878 2.786-2.286v-2.839s-5.298 1.832-5.186 4.482v4.481s0.236-0.082 0.608-0.236c0-0.143 0-0.288 0.017-0.433 0.109-1.23 0.748-2.37 1.776-3.17z"></path>
<path fill="#afb1b8" style="fill: var(--color3, #afb1b8)" d="M10.052 7.683c0.028-0.311 0.090-0.618 0.185-0.918-0.64 0.69-1.027 1.547-1.108 2.449-0.008 0.085-0.012 0.17-0.014 0.258 0.442-0.193 0.777-0.358 1.104-0.534l-0.085 0.042c-0.094-0.427-0.122-0.864-0.082-1.298zM10.263 7.699c-0.010 0.109-0.016 0.236-0.016 0.364 0 0.287 0.030 0.567 0.086 0.838l-0.005-0.026c1.447-0.793 3.074-2.019 3.011-3.499v-0.129c-1.034 0.106-2.002 0.52-2.754 1.178-0.166 0.373-0.281 0.805-0.321 1.259l-0.001 0.016z"></path>
</symbol>
<symbol id="client-6" viewBox="0 0 64 32">
<path fill="#afb1b8" style="fill: var(--color3, #afb1b8)" d="M10.117 4.567c-0.081-0.105-0.13-0.238-0.13-0.383 0-0.014 0-0.029 0.001-0.043l-0 0.002v-0.615c0-0.188 0.043-0.332 0.128-0.43s0.232-0.147 0.441-0.146c0.196 0 0.335 0.042 0.417 0.125 0.090 0.106 0.133 0.237 0.123 0.368v0.145h-0.35v-0.147c0.001-0.048-0.002-0.096-0.010-0.143-0.006-0.035-0.024-0.064-0.050-0.085l-0-0c-0.031-0.021-0.070-0.034-0.112-0.034-0.005 0-0.010 0-0.016 0.001l0.001-0c-0.005-0-0.010-0.001-0.015-0.001-0.044 0-0.085 0.013-0.119 0.036l0.001-0.001c-0.029 0.023-0.050 0.056-0.058 0.093l-0 0.001c-0.009 0.042-0.014 0.091-0.014 0.14 0 0.004 0 0.008 0 0.013v-0.001 0.746c-0.006 0.072 0.010 0.144 0.045 0.21 0.018 0.022 0.042 0.040 0.069 0.050l0.001 0c0.021 0.008 0.044 0.013 0.069 0.013 0.007 0 0.015-0 0.022-0.001l-0.001 0c0.004 0 0.010 0.001 0.015 0.001 0.041 0 0.079-0.013 0.11-0.035l-0.001 0c0.027-0.022 0.046-0.054 0.052-0.090l0-0.001c0.008-0.050 0.012-0.1 0.011-0.15v-0.151h0.35v0.138c0.001 0.011 0.001 0.024 0.001 0.037 0 0.133-0.046 0.255-0.123 0.351l0.001-0.001c-0.080 0.091-0.218 0.137-0.419 0.137s-0.354-0.049-0.44-0.15zM11.575 4.573c-0.089-0.096-0.133-0.235-0.133-0.42v-0.647c0-0.183 0.044-0.321 0.133-0.415s0.236-0.141 0.444-0.14c0.206 0 0.353 0.047 0.441 0.14s0.133 0.232 0.133 0.415v0.647c0 0.183-0.045 0.323-0.135 0.419s-0.236 0.144-0.44 0.144-0.354-0.049-0.444-0.144zM12.181 4.418c0.032-0.060 0.046-0.126 0.042-0.191v-0.792c0-0.006 0.001-0.014 0.001-0.021 0-0.061-0.015-0.118-0.043-0.168l0.001 0.002c-0.019-0.023-0.043-0.041-0.070-0.051l-0.001-0c-0.020-0.008-0.044-0.013-0.069-0.013-0.008 0-0.017 0.001-0.025 0.002l0.001-0c-0.007-0.001-0.015-0.001-0.024-0.001-0.025 0-0.048 0.005-0.070 0.013l0.001-0c-0.029 0.011-0.053 0.029-0.072 0.051l-0 0c-0.032 0.058-0.046 0.123-0.042 0.188v0.796c-0.004 0.066 0.010 0.132 0.042 0.192 0.020 0.020 0.046 0.036 0.074 0.047 0.027 0.011 0.058 0.017 0.090 0.017s0.063-0.006 0.092-0.018l-0.002 0.001c0.028-0.011 0.053-0.027 0.074-0.047v-0.004zM13.014 2.97h0.377l0.283 1.194 0.29-1.194h0.367l0.037 1.723h-0.271l-0.029-1.197-0.28 1.197h-0.218l-0.29-1.202-0.027 1.202h-0.274l0.034-1.723zM14.79 2.97h0.587c0.338 0 0.507 0.163 0.507 0.489 0 0.312-0.178 0.468-0.534 0.468h-0.2v0.766h-0.362l0.002-1.723zM15.292 3.707c0.036 0.004 0.072 0.001 0.107-0.008s0.066-0.025 0.093-0.046c0.042-0.058 0.060-0.127 0.052-0.195 0-0.006 0-0.012 0-0.019 0-0.049-0.007-0.096-0.019-0.141l0.001 0.004c-0.006-0.018-0.015-0.034-0.027-0.047l0 0c-0.013-0.014-0.028-0.026-0.045-0.034l-0.001-0c-0.042-0.018-0.091-0.028-0.143-0.028-0.007 0-0.013 0-0.020 0.001l0.001-0h-0.141v0.515h0.141zM16.407 2.97h0.389l0.399 1.723h-0.338l-0.079-0.397h-0.347l-0.081 0.397h-0.343l0.399-1.723zM16.74 4.097l-0.136-0.723-0.135 0.723h0.271zM17.518 2.97h0.254l0.485 0.983v-0.983h0.301v1.723h-0.241l-0.489-1.026v1.026h-0.311l0.001-1.723zM19.263 4.036l-0.404-1.063h0.34l0.246 0.683 0.231-0.683h0.333l-0.399 1.064v0.657h-0.348v-0.657zM10.677 5.447v0.090h-0.296v0.7h-0.124v-0.7h-0.297v-0.090h0.717zM11.604 6.237h-0.096c-0.001 0-0.002 0-0.003 0-0.009 0-0.017-0.003-0.024-0.008l0 0c-0.007-0.004-0.012-0.011-0.016-0.018l-0-0-0.086-0.188h-0.41l-0.085 0.188c-0.003 0.008-0.007 0.016-0.013 0.021v0c-0.007 0.005-0.015 0.008-0.025 0.008-0.001 0-0.002-0-0.002-0h-0.095l0.362-0.79h0.126l0.367 0.787zM11.004 5.944h0.342l-0.145-0.322c-0.009-0.020-0.018-0.045-0.026-0.070l-0.001-0.004c-0.005 0.015-0.009 0.029-0.014 0.042l-0.013 0.033-0.143 0.321zM12.228 6.159c0.023 0.001 0.045 0.001 0.068 0 0.019-0.002 0.039-0.005 0.058-0.009 0.018-0.004 0.035-0.009 0.052-0.014 0.016-0.006 0.032-0.013 0.048-0.019v-0.178h-0.145c-0 0-0.001 0-0.001 0-0.007 0-0.013-0.002-0.018-0.006l0 0c-0.002-0.002-0.004-0.004-0.005-0.006l-0-0c-0.001-0.002-0.002-0.005-0.002-0.007 0-0 0-0 0-0.001v0-0.061h0.281v0.303c-0.044 0.027-0.095 0.049-0.149 0.063l-0.004 0.001c-0.030 0.008-0.060 0.013-0.091 0.016-0.035 0.003-0.070 0.005-0.106 0.005-0.001 0-0.003 0-0.005 0-0.064 0-0.125-0.011-0.182-0.031l0.004 0.001c-0.056-0.019-0.104-0.047-0.146-0.083l0.001 0c-0.039-0.034-0.070-0.076-0.092-0.123l-0.001-0.002c-0.021-0.047-0.033-0.101-0.033-0.159 0-0.002 0-0.004 0-0.006v0c-0-0.001-0-0.003-0-0.005 0-0.058 0.012-0.113 0.034-0.163l-0.001 0.003c0.021-0.047 0.053-0.090 0.093-0.125s0.091-0.063 0.145-0.082c0.062-0.020 0.128-0.030 0.194-0.029 0.034 0 0.067 0.002 0.101 0.007 0.029 0.004 0.058 0.011 0.086 0.020 0.026 0.008 0.050 0.019 0.073 0.031s0.043 0.026 0.063 0.041l-0.035 0.049c-0.003 0.005-0.007 0.008-0.012 0.011l-0 0c-0.005 0.003-0.011 0.004-0.017 0.004h-0c-0.008-0-0.016-0.002-0.023-0.006l0 0c-0.015-0.007-0.026-0.013-0.038-0.020l0.002 0.001c-0.014-0.008-0.030-0.015-0.046-0.021l-0.002-0.001c-0.018-0.007-0.041-0.013-0.064-0.017l-0.003-0c-0.026-0.004-0.056-0.007-0.087-0.007-0.002 0-0.003 0-0.005 0h0c-0.001 0-0.003-0-0.004-0-0.049 0-0.095 0.008-0.139 0.023l0.003-0.001c-0.040 0.014-0.077 0.035-0.107 0.063-0.029 0.027-0.051 0.060-0.067 0.096l-0.001 0.002c-0.015 0.039-0.024 0.084-0.024 0.132s0.009 0.093 0.025 0.134l-0.001-0.003c0.016 0.037 0.041 0.071 0.073 0.1 0.030 0.027 0.066 0.048 0.106 0.063 0.046 0.014 0.095 0.019 0.144 0.016zM13.384 6.147h0.396v0.090h-0.516v-0.79h0.124l-0.003 0.7zM14.191 6.237h-0.124v-0.79h0.124v0.79zM14.652 5.451c0.007 0.004 0.014 0.008 0.019 0.014l0 0 0.53 0.596c-0-0.004-0.001-0.009-0.001-0.014s0-0.010 0.001-0.015l-0 0.001v-0.589h0.108v0.794h-0.062c-0.001 0-0.003 0-0.004 0-0.008 0-0.016-0.002-0.023-0.005l0 0c-0.008-0.004-0.014-0.009-0.019-0.015l-0-0-0.529-0.595v0.614h-0.104v-0.79h0.064c0.007 0 0.014 0.001 0.020 0.004zM16.221 5.447v0.087h-0.439v0.261h0.356v0.084h-0.356v0.27h0.439v0.087h-0.567v-0.788h0.567zM3.235 0.567l5.503 1.349v4.727l-5.503-1.348v-4.728zM2.881 0.163v5.36l6.208 1.522v-5.36l-6.208-1.523z"></path>
<path fill="#afb1b8" style="fill: var(--color3, #afb1b8)" d="M6.209 9.534l-6.209-1.524v-5.36l6.209 1.523v5.36z"></path>
<path fill="#afb1b8" style="fill: var(--color3, #afb1b8)" d="M2.985 0.506l5.431 1.332-2.31 1.995-5.432-1.333 2.311-1.994zM2.881 0.164l-2.881 2.487 6.209 1.523 2.881-2.488-6.208-1.523zM6.558 9.233l2.532-2.186-2.532-0.621v2.807z"></path>
</symbol>
<symbol id="clock" viewBox="0 0 32 32">
<path fill="#212121" style="fill: var(--color2, #212121)" d="M31.296 15.301c-0.001-8.452-6.855-15.303-15.308-15.301s-15.303 6.855-15.301 15.308c0.002 6.788 4.422 12.543 10.541 14.545l0.108 0.031c0.061 0.019 0.123 0.029 0.187 0.029 0.12 0 0.238-0.032 0.342-0.094 0.135-0.080 0.236-0.207 0.283-0.357l3.865-12.25c1.054-0.004 1.906-0.859 1.906-1.913 0-1.056-0.856-1.913-1.913-1.913-0.303 0-0.59 0.071-0.845 0.196l0.011-0.005-5.106-5.107c-0.114-0.11-0.271-0.179-0.443-0.179-0.352 0-0.638 0.286-0.638 0.638 0 0.172 0.068 0.328 0.179 0.443l-0-0 5.103 5.109c-0.121 0.241-0.191 0.525-0.191 0.826 0 0.602 0.283 1.137 0.723 1.48l0.004 0.003-3.682 11.673c-7.278-2.681-11.004-10.754-8.324-18.032s10.754-11.004 18.032-8.323c7.278 2.681 11.004 10.754 8.323 18.032-1.345 3.581-4.003 6.406-7.374 7.938l-0.088 0.036-0.398-1.874c-0.063-0.291-0.318-0.506-0.624-0.506-0.164 0-0.313 0.062-0.426 0.163l0.001-0.001-3.837 3.426c-0.132 0.117-0.214 0.287-0.214 0.477 0 0.283 0.185 0.524 0.441 0.606l0.005 0.001 4.899 1.563c0.058 0.020 0.126 0.031 0.196 0.031 0.352 0 0.637-0.285 0.637-0.637 0-0.047-0.005-0.093-0.015-0.138l0.001 0.004-0.391-1.839c5.528-2.374 9.329-7.772 9.329-14.057 0-0.011 0-0.023-0-0.034v0.002zM15.992 14.664c0.352 0 0.638 0.286 0.638 0.638s-0.285 0.638-0.638 0.638v0c-0.352 0-0.638-0.286-0.638-0.638s0.286-0.638 0.638-0.638v0zM18.092 29.528l2.184-1.948 0.603 2.84-2.787-0.892z"></path>
<path fill="#2196f3" style="fill: var(--color1, #2196f3)" d="M15.354 3.185v1.275c0 0.352 0.286 0.638 0.638 0.638s0.638-0.285 0.638-0.638v0-1.275c0-0.352-0.285-0.638-0.638-0.638s-0.638 0.285-0.638 0.638v0zM3.876 14.664c-0.352 0-0.638 0.286-0.638 0.638s0.285 0.638 0.638 0.638h1.275c0.352 0 0.638-0.286 0.638-0.638s-0.285-0.638-0.638-0.638h-1.275zM28.108 15.939c0.352 0 0.638-0.286 0.638-0.638s-0.285-0.638-0.638-0.638h-1.275c-0.352 0-0.638 0.286-0.638 0.638s0.285 0.638 0.638 0.638h1.275z"></path>
</symbol>
<symbol id="diagram" viewBox="0 0 32 32">
<path fill="#2196f3" style="fill: var(--color1, #2196f3)" d="M14.926 14.965h1.066v4.798h-1.066v-4.798zM19.19 17.097h1.066v2.665h-1.066v-2.665zM10.661 18.696h1.066v1.066h-1.066v-1.066zM7.463 18.163h1.066v1.599h-1.066v-1.599z"></path>
<path fill="#212121" style="fill: var(--color2, #212121)" d="M1.599 28.291h25.586c0 0 0 0 0 0 0.883 0 1.599-0.716 1.599-1.599v0-2.132c0-0.883-0.716-1.599-1.599-1.599v0h-0.533v-13.294l3.028-2.868c0.207 0.104 0.452 0.166 0.711 0.166 0.888 0 1.608-0.72 1.608-1.608s-0.72-1.608-1.608-1.608c-0.888 0-1.608 0.72-1.608 1.608 0 0.247 0.056 0.481 0.155 0.69l-0.004-0.010-2.281 2.162v-1.23c0-0.883-0.716-1.599-1.599-1.599v0h-21.323c-0.883 0-1.599 0.716-1.599 1.599v0 15.992h-0.533c-0.883 0-1.599 0.716-1.599 1.599v0 2.132c0 0.883 0.716 1.599 1.599 1.599v0zM30.384 4.837c0.294 0 0.533 0.239 0.533 0.533s-0.239 0.533-0.533 0.533v0c-0.294 0-0.533-0.239-0.533-0.533s0.239-0.533 0.533-0.533v0zM3.198 6.969c0-0.294 0.239-0.533 0.533-0.533h21.323c0.294 0 0.533 0.239 0.533 0.533v2.239l-1.066 1.013v-2.185c0-0.295-0.239-0.534-0.534-0.534h-19.189c-0.294 0-0.534 0.239-0.534 0.533v13.327c0 0.294 0.239 0.533 0.534 0.533h19.189c0.295 0 0.534-0.239 0.534-0.533v-9.675l1.066-1.010v12.283h-22.389v-15.991zM7.996 13.899c-0.001 0-0.003 0-0.005 0-0.883 0-1.599 0.716-1.599 1.599s0.716 1.599 1.599 1.599c0.432 0 0.824-0.172 1.112-0.45l-0 0 1.853 0.93c0.215 0.107 0.476 0.057 0.636-0.122l3.939-4.432 3.872 2.902c0.208 0.155 0.498 0.139 0.686-0.039l3.365-3.188v8.131h-18.123v-12.261h18.123v2.661l-3.771 3.572-3.904-2.927c-0.088-0.067-0.2-0.107-0.32-0.107-0.158 0-0.3 0.069-0.398 0.178l-0 0.001-3.993 4.493-1.493-0.746c0.011-0.064 0.017-0.128 0.020-0.193 0-0.883-0.716-1.599-1.599-1.599v0zM8.529 15.498c0 0.294-0.239 0.533-0.533 0.533s-0.533-0.239-0.533-0.533v0c0-0.294 0.239-0.533 0.533-0.533s0.533 0.239 0.533 0.533v0zM11.727 24.026h5.33v0.533c0 0.294-0.238 0.533-0.533 0.533h-4.265c-0.294 0-0.533-0.239-0.533-0.533v0-0.533zM1.067 24.56c0-0.294 0.238-0.533 0.533-0.533h9.062v0.533c0 0.883 0.716 1.599 1.599 1.599v0h4.265c0.883 0 1.599-0.716 1.599-1.599v0-0.533h9.062c0.294 0 0.533 0.239 0.533 0.533v2.132c0 0.294-0.239 0.533-0.533 0.533h-25.586c-0 0-0 0-0 0-0.294 0-0.533-0.239-0.533-0.533 0 0 0 0 0 0v0-2.132z"></path>
</symbol>
<symbol id="envelope" viewBox="0 0 64 32">
<path fill="#757575" style="fill: var(--color4, #757575)" d="M3.093 0h-2.773c-0.176 0-0.32 0.144-0.32 0.32v1.92c0 0.176 0.144 0.32 0.32 0.32h2.773c0.176 0 0.32-0.144 0.32-0.32v-1.92c0-0.176-0.144-0.32-0.32-0.32zM3.093 0.213c0.014 0 0.028 0.003 0.041 0.008l-1.428 1.237-1.428-1.237c0.012-0.005 0.026-0.008 0.041-0.008v0h2.773zM3.093 2.347h-2.773c-0.059 0-0.107-0.048-0.107-0.107v0-1.793l1.423 1.234c0.019 0.016 0.043 0.026 0.070 0.026s0.051-0.010 0.070-0.026l-0 0 1.423-1.234v1.793c0 0.059-0.048 0.107-0.107 0.107v0z"></path>
</symbol>
<symbol id="facebook" viewBox="0 0 64 32">
<path fill="#fff" style="fill: var(--color5, #fff)" d="M9.387 4.693c0 0.002 0 0.004 0 0.006 0 1.294-0.525 2.466-1.375 3.313l-0 0c-0.847 0.849-2.019 1.375-3.313 1.375-0.002 0-0.004 0-0.006 0h0c-0.002 0-0.004 0-0.006 0-1.294 0-2.466-0.525-3.313-1.375l-0-0c-0.849-0.847-1.375-2.019-1.375-3.313 0-0.002 0-0.004 0-0.006v0c0-0.002 0-0.004 0-0.006 0-1.294 0.525-2.466 1.375-3.313l0-0c0.847-0.849 2.019-1.375 3.313-1.375 0.002 0 0.004 0 0.006 0h-0c0.002 0 0.004 0 0.006 0 1.294 0 2.466 0.525 3.313 1.375l0 0c0.849 0.847 1.375 2.019 1.375 3.313 0 0.002 0 0.004 0 0.006v-0z"></path>
<path fill="#afb1b8" style="fill: var(--color3, #afb1b8)" d="M5.404 3.268h0.39v-0.678c-0.164-0.019-0.355-0.030-0.548-0.030-0.007 0-0.014 0-0.021 0h0.001c-0.562 0-0.946 0.353-0.946 1.003v0.597h-0.62v0.758h0.62v1.908h0.76v-1.908h0.595l0.095-0.758h-0.689v-0.523c0-0.219 0.059-0.369 0.365-0.369z"></path>
</symbol>
<symbol id="instagram" viewBox="0 0 64 32">
<path fill="#2196f3" style="fill: var(--color1, #2196f3)" d="M9.387 4.693c0 0.002 0 0.004 0 0.006 0 1.294-0.525 2.466-1.375 3.313l-0 0c-0.847 0.849-2.019 1.375-3.313 1.375-0.002 0-0.004 0-0.006 0h0c-0.002 0-0.004 0-0.006 0-1.294 0-2.466-0.525-3.313-1.375l-0-0c-0.849-0.847-1.375-2.019-1.375-3.313 0-0.002 0-0.004 0-0.006v0c0-0.002 0-0.004 0-0.006 0-1.294 0.525-2.466 1.375-3.313l0-0c0.847-0.849 2.019-1.375 3.313-1.375 0.002 0 0.004 0 0.006 0h-0c0.002 0 0.004 0 0.006 0 1.294 0 2.466 0.525 3.313 1.375l0 0c0.849 0.847 1.375 2.019 1.375 3.313 0 0.002 0 0.004 0 0.006v-0z"></path>
<path fill="#fff" style="fill: var(--color5, #fff)" d="M6.822 3.814c-0.010-0.227-0.046-0.382-0.099-0.518-0.057-0.148-0.141-0.274-0.247-0.378l-0-0c-0.104-0.106-0.23-0.189-0.37-0.244l-0.007-0.002c-0.136-0.052-0.291-0.089-0.518-0.099-0.228-0.011-0.301-0.013-0.88-0.013s-0.652 0.003-0.879 0.013c-0.227 0.010-0.382 0.047-0.518 0.099-0.148 0.057-0.274 0.14-0.378 0.246l-0 0c-0.106 0.104-0.189 0.23-0.243 0.37l-0.002 0.007c-0.053 0.136-0.089 0.291-0.099 0.518-0.011 0.228-0.013 0.301-0.013 0.88s0.003 0.652 0.013 0.879c0.010 0.227 0.047 0.383 0.099 0.518 0.057 0.148 0.141 0.274 0.246 0.378l0 0c0.107 0.108 0.236 0.192 0.378 0.246 0.136 0.053 0.291 0.089 0.518 0.099 0.228 0.010 0.3 0.013 0.879 0.013s0.652-0.003 0.879-0.013c0.227-0.010 0.383-0.046 0.518-0.099 0.288-0.113 0.511-0.337 0.622-0.617l0.003-0.007c0.052-0.136 0.089-0.291 0.099-0.518 0.010-0.228 0.012-0.3 0.012-0.879s-0.001-0.652-0.011-0.879zM6.438 5.556c-0.009 0.208-0.044 0.321-0.073 0.396-0.074 0.187-0.219 0.332-0.401 0.404l-0.005 0.002c-0.075 0.029-0.188 0.064-0.396 0.073-0.225 0.010-0.292 0.013-0.862 0.013s-0.638-0.003-0.862-0.013c-0.208-0.009-0.321-0.044-0.396-0.073-0.096-0.036-0.178-0.090-0.245-0.159l-0-0c-0.069-0.067-0.123-0.149-0.158-0.24l-0.002-0.005c-0.029-0.075-0.064-0.188-0.073-0.396-0.010-0.225-0.013-0.293-0.013-0.862s0.003-0.638 0.013-0.862c0.009-0.208 0.044-0.321 0.073-0.396 0.036-0.096 0.090-0.178 0.16-0.245l0-0c0.067-0.069 0.149-0.123 0.241-0.158l0.005-0.002c0.075-0.029 0.188-0.064 0.396-0.073 0.225-0.010 0.293-0.012 0.862-0.012s0.638 0.002 0.862 0.012c0.208 0.009 0.321 0.044 0.396 0.073 0.092 0.034 0.177 0.088 0.245 0.159 0.071 0.069 0.125 0.153 0.159 0.245 0.029 0.075 0.064 0.188 0.073 0.396 0.010 0.225 0.013 0.292 0.013 0.862s-0.003 0.636-0.013 0.861z"></path>
<path fill="#fff" style="fill: var(--color5, #fff)" d="M4.701 3.598c-0 0-0 0-0 0-0.605 0-1.096 0.491-1.096 1.096s0.491 1.096 1.096 1.096c0.605 0 1.096-0.491 1.096-1.096 0-0 0-0 0-0v0c-0-0.605-0.491-1.096-1.096-1.096v0zM4.701 5.405c-0.393-0-0.711-0.318-0.711-0.711s0.318-0.711 0.711-0.711c0 0 0 0 0 0v0c0.393 0 0.711 0.318 0.711 0.711s-0.318 0.711-0.711 0.711v0zM6.097 3.554c0 0.141-0.115 0.256-0.256 0.256s-0.256-0.115-0.256-0.256v0c0-0.141 0.115-0.256 0.256-0.256s0.256 0.115 0.256 0.256v0z"></path>
</symbol>
<symbol id="linkedin" viewBox="0 0 64 32">
<path fill="#fff" style="fill: var(--color5, #fff)" d="M9.387 4.693c0 0.002 0 0.004 0 0.006 0 1.294-0.525 2.466-1.375 3.313l-0 0c-0.847 0.849-2.019 1.375-3.313 1.375-0.002 0-0.004 0-0.006 0h0c-0.002 0-0.004 0-0.006 0-1.294 0-2.466-0.525-3.313-1.375l-0-0c-0.849-0.847-1.375-2.019-1.375-3.313 0-0.002 0-0.004 0-0.006v0c0-0.002 0-0.004 0-0.006 0-1.294 0.525-2.466 1.375-3.313l0-0c0.847-0.849 2.019-1.375 3.313-1.375 0.002 0 0.004 0 0.006 0h-0c0.002 0 0.004 0 0.006 0 1.294 0 2.466 0.525 3.313 1.375l0 0c0.849 0.847 1.375 2.019 1.375 3.313 0 0.002 0 0.004 0 0.006v-0z"></path>
<path fill="#afb1b8" style="fill: var(--color3, #afb1b8)" d="M6.826 6.827h0.001v-1.565c0-0.765-0.165-1.355-1.060-1.355-0.43 0-0.719 0.236-0.837 0.46h-0.012v-0.388h-0.849v2.848h0.884v-1.41c0-0.371 0.070-0.731 0.53-0.731 0.453 0 0.46 0.424 0.46 0.754v1.387h0.883zM2.63 3.978h0.885v2.848h-0.885v-2.848zM3.072 2.56c-0.283 0-0.512 0.229-0.512 0.512v0c0 0.283 0.23 0.517 0.512 0.517s0.512-0.234 0.512-0.517c-0-0.283-0.229-0.512-0.512-0.512h-0z"></path>
</symbol>
<symbol id="smartphone" viewBox="0 0 64 32">
<path fill="#757575" style="fill: var(--color4, #757575)" d="M1.813 0h-1.493c-0.176 0-0.32 0.144-0.32 0.32v2.773c0 0.176 0.144 0.32 0.32 0.32h1.493c0.176 0 0.32-0.144 0.32-0.32v-2.773c0-0.176-0.144-0.32-0.32-0.32zM0.32 0.213h1.493c0.059 0 0.107 0.048 0.107 0.107v0 2.24h-1.707v-2.24c0-0.059 0.048-0.107 0.107-0.107v0zM1.813 3.2h-1.493c-0.059 0-0.107-0.048-0.107-0.107v0-0.32h1.707v0.32c0 0.059-0.048 0.107-0.107 0.107v0z"></path>
<path fill="#757575" style="fill: var(--color4, #757575)" d="M0.502 2.931c0.019 0.017 0.031 0.042 0.031 0.070s-0.012 0.053-0.031 0.070l-0 0c-0.020 0.018-0.046 0.029-0.076 0.029s-0.056-0.011-0.076-0.029l0 0c-0.019-0.017-0.031-0.042-0.031-0.070s0.012-0.053 0.031-0.070l0-0c0.020-0.018 0.046-0.029 0.076-0.029s0.056 0.011 0.076 0.029l-0-0z"></path>
</symbol>
<symbol id="station" viewBox="0 0 30 32">
<path fill="#212121" style="fill: var(--color2, #212121)" d="M29.859 22.098l-8.443-8.505 0.937-4.616c0.225 0.090 0.485 0.144 0.758 0.146h0.007c0.008 0 0.017 0 0.026 0 1.192 0 2.159-0.967 2.159-2.159s-0.967-2.159-2.159-2.159c-1.192 0-2.159 0.967-2.159 2.159 0 0.259 0.046 0.508 0.13 0.739l-0.005-0.015-4.96 0.606-8.091-8.133c-0.096-0.098-0.229-0.159-0.376-0.16h-0c-0.146 0.001-0.278 0.060-0.373 0.155l0-0-1.512 1.504c-0.096 0.097-0.156 0.23-0.156 0.377s0.060 0.281 0.156 0.377v0l0.814 0.825c-1.143 2.062-1.816 4.522-1.816 7.139 0 4.106 1.656 7.824 4.336 10.525l-0.001-0.001c0.043 0.041 0.092 0.074 0.146 0.097-0.032 0.164-0.051 0.353-0.052 0.546v6.188h-6.4c-1.472 0.001-2.666 1.194-2.667 2.666v1.067c0 0.295 0.239 0.534 0.534 0.534h24.534c0.294 0 0.533-0.239 0.533-0.534v-1.067c-0.002-1.472-1.195-2.665-2.666-2.666h-6.4v-2.742c1.003 0.21 2.024 0.317 3.049 0.32 2.58-0.003 5.005-0.663 7.117-1.822l-0.077 0.039 0.818 0.823c0.099 0.101 0.235 0.159 0.376 0.16 0.14-0.001 0.274-0.057 0.373-0.155l1.512-1.504c0.096-0.097 0.156-0.23 0.156-0.377s-0.060-0.281-0.156-0.377v0zM22.366 6.233c0.193-0.192 0.459-0.31 0.752-0.31 0.589 0 1.067 0.478 1.067 1.066s-0.477 1.066-1.067 1.066c-0 0-0 0-0 0h-0.004c-0.587-0.003-1.061-0.479-1.061-1.066 0-0.295 0.12-0.563 0.314-0.756l0-0h-0.002zM21.11 9.737l-0.598 2.946-1.175-1.183 1.774-1.763zM20.504 8.835l-1.92 1.909-1.486-1.493 3.406-0.416zM23.090 28.8c0.884 0 1.6 0.716 1.6 1.6v0 0.534h-23.466v-0.534c0-0.884 0.716-1.6 1.6-1.6v0h20.267zM15.623 26.666v1.067h-5.334v-1.067h5.334zM10.29 25.6v-4.053c0-1.294 1.196-2.346 2.666-2.346s2.667 1.053 2.667 2.346v4.053h-5.333zM16.69 23.904v-2.357c0-1.882-1.675-3.413-3.733-3.413-0.017-0-0.038-0-0.058-0-1.353 0-2.54 0.707-3.213 1.771l-0.009 0.016c-2.36-2.482-3.812-5.846-3.812-9.55 0-2.314 0.567-4.496 1.569-6.414l-0.036 0.077 18.602 18.709c-1.823 0.947-3.979 1.502-6.266 1.502-1.079 0-2.128-0.124-3.136-0.357l0.093 0.018zM27.979 23.22l-21.057-21.181 0.754-0.752 7.935 7.98c0.004 0 0.006 0.007 0.010 0.010l13.115 13.191-0.757 0.752z"></path>
<path fill="#2196f3" style="fill: var(--color1, #2196f3)" d="M12.961 20.267h-0.005c-0.001 0-0.002 0-0.002 0-0.884 0-1.6 0.716-1.6 1.6s0.715 1.599 1.597 1.6h0.005c0.001 0 0.001 0 0.002 0 0.884 0 1.6-0.716 1.6-1.6s-0.715-1.599-1.598-1.6h-0zM13.334 22.245c-0.096 0.096-0.229 0.155-0.376 0.155-0.295 0-0.534-0.239-0.534-0.534s0.238-0.533 0.532-0.533h0c0.293 0.001 0.531 0.239 0.531 0.533 0 0.148-0.060 0.282-0.157 0.378l-0 0h0.005z"></path>
</symbol>
<symbol id="twitter" viewBox="0 0 64 32">
<path fill="#fff" style="fill: var(--color5, #fff)" d="M9.387 4.693c0 0.002 0 0.004 0 0.006 0 1.294-0.525 2.466-1.375 3.313l-0 0c-0.847 0.849-2.019 1.375-3.313 1.375-0.002 0-0.004 0-0.006 0h0c-0.002 0-0.004 0-0.006 0-1.294 0-2.466-0.525-3.313-1.375l-0-0c-0.849-0.847-1.375-2.019-1.375-3.313 0-0.002 0-0.004 0-0.006v0c0-0.002 0-0.004 0-0.006 0-1.294 0.525-2.466 1.375-3.313l0-0c0.847-0.849 2.019-1.375 3.313-1.375 0.002 0 0.004 0 0.006 0h-0c0.002 0 0.004 0 0.006 0 1.294 0 2.466 0.525 3.313 1.375l0 0c0.849 0.847 1.375 2.019 1.375 3.313 0 0.002 0 0.004 0 0.006v-0z"></path>
<path fill="#afb1b8" style="fill: var(--color3, #afb1b8)" d="M6.827 3.37c-0.147 0.066-0.317 0.114-0.495 0.137l-0.009 0.001c0.181-0.109 0.318-0.277 0.383-0.477l0.002-0.006c-0.16 0.096-0.346 0.17-0.543 0.21l-0.011 0.002c-0.16-0.171-0.387-0.277-0.639-0.277-0.483 0-0.874 0.392-0.874 0.874 0 0 0 0.001 0 0.001v-0c0 0.069 0.006 0.136 0.020 0.199-0.727-0.035-1.371-0.384-1.803-0.915-0.075 0.127-0.119 0.279-0.119 0.442v0c0 0.303 0.156 0.572 0.388 0.727-0.146-0.004-0.281-0.043-0.399-0.11l0.004 0.002v0.010c0 0.422 0.298 0.774 0.695 0.859l0.006 0.001c-0.067 0.018-0.143 0.029-0.222 0.029-0.003 0-0.005 0-0.008-0h0c-0.004 0-0.009 0-0.014 0-0.054 0-0.106-0.005-0.157-0.016l0.005 0.001c0.113 0.346 0.435 0.601 0.817 0.609-0.295 0.232-0.672 0.373-1.082 0.373-0.001 0-0.002 0-0.002 0h0c-0.003 0-0.007 0-0.012 0-0.070 0-0.138-0.004-0.206-0.013l0.008 0.001c0.377 0.246 0.838 0.393 1.334 0.393 0.003 0 0.006 0 0.008 0h-0c1.61 0 2.49-1.333 2.49-2.489 0-0.038-0.001-0.076-0.003-0.113 0.173-0.125 0.319-0.275 0.434-0.447l0.004-0.006z"></path>
</symbol>
</defs>
</svg>
